<?xml version="1.0" encoding="iso-8859-1"?>
<!-- Generator: Adobe Illustrator 19.0.0, SVG Export Plug-In . SVG Version: 6.00 Build 0)  -->
<svg version="1.1" id="Capa_1" xmlns="http://www.w3.org/2000/svg" xmlns:xlink="http://www.w3.org/1999/xlink" x="0px" y="0px"
	 viewBox="0 0 512 512" style="enable-background:new 0 0 512 512;" xml:space="preserve">
<g>
	<g>
		<path d="M499.954,305.293L458.007,221.4C455.826,83.247,329.896-23.191,188.04,4.37C99.249,21.62,28.507,93.039,12.01,182.086
			c-11.614,62.687,2.33,125.035,39.264,175.562C81.425,398.896,98.031,448.384,98.032,497c0,8.284,6.716,15,15,15h210.002
			c8.284,0,15-6.716,15-15v-39.201c0-4.301,3.499-7.8,7.8-7.8h67.201c24.813,0,45.001-20.187,45.001-45.001v-45.001h8.108
			c13.197,0,25.217-6.702,32.155-17.928C505.237,330.844,505.855,317.096,499.954,305.293z M472.779,326.299
			c-0.688,1.112-2.71,3.699-6.635,3.699h-23.109c-8.284,0-15,6.716-15,15v60.001c0,8.271-6.729,15-15,15h-67.201
			c-20.843,0-37.8,16.957-37.8,37.8V482H127.571c-3.06-50-21.279-99.924-52.079-142.056c-32.009-43.791-44.08-97.911-33.984-152.393
			C55.779,110.519,116.966,48.74,193.761,33.819c123.124-23.92,234.274,68.818,234.274,191.177c0,2.329,0.542,4.625,1.583,6.708
			l43.501,87.005C474.876,322.22,473.467,325.187,472.779,326.299z"/>
	</g>
</g>
<g>
	<g>
		<path d="M233.032,89.995c-74.44,0-135.002,60.562-135.002,135.002s60.562,135.002,135.002,135.002s135.002-60.562,135.002-135.002
			S307.473,89.995,233.032,89.995z M233.032,329.998c-57.898,0-105.001-47.104-105.001-105.001s47.104-105.001,105.001-105.001
			s105.001,47.104,105.001,105.001S290.93,329.998,233.032,329.998z"/>
	</g>
</g>
<g>
	<g>
		<path d="M303.638,184.39c-5.856-5.859-15.354-5.859-21.211,0l-64.395,64.394l-34.394-34.393c-5.857-5.858-15.355-5.858-21.213,0
			c-5.858,5.858-5.858,15.355,0,21.213l45.001,45.001c2.929,2.929,6.768,4.394,10.606,4.394c3.838,0,7.678-1.464,10.606-4.394
			l75.001-75.001C309.496,199.745,309.496,190.248,303.638,184.39z"/>
	</g>
</g>
<g>
</g>
<g>
</g>
<g>
</g>
<g>
</g>
<g>
</g>
<g>
</g>
<g>
</g>
<g>
</g>
<g>
</g>
<g>
</g>
<g>
</g>
<g>
</g>
<g>
</g>
<g>
</g>
<g>
</g>
</svg>
