<svg width="76" height="76" viewBox="0 0 76 76" fill="none" xmlns="http://www.w3.org/2000/svg">
<path d="M42.1982 38.0008L75.13 5.06886C76.2894 3.90942 76.2894 2.02961 75.13 0.870315C73.9706 -0.28898 72.0907 -0.289128 70.9315 0.870315L37.9995 33.8023L5.06764 0.870315C3.9082 -0.289128 2.02839 -0.289128 0.869094 0.870315C-0.290201 2.02976 -0.290349 3.90957 0.869094 5.06886L33.8009 38.0007L0.869094 70.9327C-0.290349 72.0921 -0.290349 73.9719 0.869094 75.1312C1.44874 75.7109 2.20859 76.0006 2.96844 76.0006C3.72829 76.0006 4.48799 75.7109 5.06779 75.1312L37.9995 42.1994L70.9313 75.1312C71.511 75.7109 72.2708 76.0006 73.0307 76.0006C73.7905 76.0006 74.5502 75.7109 75.13 75.1312C76.2894 73.9718 76.2894 72.092 75.13 70.9327L42.1982 38.0008Z" fill="white"/>
</svg>
