<svg width="77" height="67" viewBox="0 0 77 67" fill="none" xmlns="http://www.w3.org/2000/svg">
<path d="M38.1486 0.423332C38.0175 0.461311 29.5142 5.18189 19.2539 10.9171C-0.883338 22.1814 0.37372 21.4489 0.116484 22.0403C0.0242675 22.2465 0 22.3822 0 22.7566C0 23.1526 0.019414 23.2557 0.131045 23.4891C0.378574 24.0262 0.499911 24.1076 3.41687 25.7408L6.13969 27.2601V39.8158V52.3714L5.77567 52.5667C4.77585 53.0931 4.01385 53.9287 3.53821 55.0138C3.13051 55.9471 2.98976 57.0377 3.14993 57.9981C3.33921 59.1159 4.32447 61.4056 5.52329 63.5055C6.13483 64.5744 7.65883 67.0269 7.69766 66.9998C7.77046 66.9509 9.58082 63.9558 10.0613 63.0931C10.9495 61.4924 11.7164 59.7887 12.0658 58.6167C12.4347 57.3796 12.2988 55.9254 11.697 54.748C11.2213 53.8093 10.5127 53.0659 9.67304 52.6101L9.1974 52.3551V40.6731C9.1974 34.2542 9.2071 28.9964 9.22166 28.9964C9.23622 28.9964 10.634 29.7723 12.3279 30.7164L15.405 32.4419L15.4196 35.6161L15.4342 38.7957L15.6137 39.208C16.0311 40.1413 16.9339 40.7978 18.555 41.335C21.4816 42.3063 25.7284 42.9031 32.3972 43.2721C34.0522 43.3643 40.9005 43.3969 42.9341 43.3263C50.6803 43.0496 56.5434 42.214 59.3487 40.9878C60.2272 40.6079 60.8775 40.0925 61.2221 39.5173C61.5716 38.9313 61.5667 39.0073 61.5667 35.5401V32.4419L68.9489 28.3182C77.1222 23.7549 76.6805 24.0317 76.9038 23.3697C77.1222 22.7294 76.9572 21.9264 76.5252 21.5032C76.4379 21.4163 67.9297 16.6307 57.6208 10.8737C37.338 -0.455673 38.6873 0.265976 38.1486 0.423332ZM72.0018 22.7566C72.0018 22.7891 61.6784 28.5623 61.6201 28.5623C61.591 28.5623 61.5667 27.96 61.557 27.081L61.5425 25.5998L61.3774 25.2308C60.9892 24.3464 60.0621 23.6681 58.5236 23.1418C55.6697 22.1651 51.2045 21.5411 44.5067 21.1776C42.8176 21.0854 36.1732 21.0528 34.1202 21.1233C24.4083 21.4598 17.9191 22.6426 16.2204 24.3843C15.8176 24.7967 15.6429 25.0789 15.5118 25.5129C15.4196 25.8168 15.4099 25.9741 15.4099 27.2058C15.4099 28.074 15.3905 28.5623 15.3613 28.5623C15.2983 28.5623 4.97484 22.7945 4.97484 22.7566C4.97484 22.7403 12.5172 18.5135 21.7291 13.3642L38.4883 3.99903L55.2475 13.3642C64.4594 18.5135 72.0018 22.7403 72.0018 22.7566ZM43.6088 24.5471C49.0398 24.7696 53.1507 25.2254 56.1259 25.9362C57.0044 26.1478 57.8684 26.4245 58.2858 26.6307L58.5576 26.7663V30.9714C58.5576 33.6139 58.5381 35.182 58.509 35.182C58.4848 35.182 58.1838 35.0952 57.8441 34.9921C54.6748 34.0263 49.3407 33.3968 42.4682 33.169C40.3132 33.0984 34.6298 33.131 32.7369 33.2286C26.4079 33.5434 21.865 34.1402 18.9772 35.0463C18.7394 35.1169 18.5258 35.182 18.5064 35.182C18.4822 35.182 18.4676 33.2883 18.4676 30.9769V26.7718L18.7006 26.6415C18.9918 26.4788 19.5596 26.2834 20.4575 26.0447C23.5249 25.2199 28.7619 24.6665 35.0181 24.4929C36.9158 24.4386 41.7547 24.4712 43.6088 24.5471ZM41.5217 36.5656C46.3898 36.6253 51.85 37.0919 54.6262 37.6834C55.3203 37.8299 56.7715 38.2259 56.7423 38.2585C56.6453 38.367 54.4758 38.8771 53.34 39.0561C45.4822 40.2878 31.9506 40.3095 24.0006 39.1104C22.5882 38.8988 20.4236 38.405 20.2925 38.2748C20.2488 38.2259 20.3556 38.188 21.1613 37.9764C23.5977 37.3307 27.102 36.9129 32.3972 36.6416C33.6833 36.5765 37.9932 36.4951 38.9009 36.5222C39.2066 36.5276 40.386 36.5493 41.5217 36.5656ZM8.26067 55.589C8.59556 55.7301 8.93045 56.0882 9.10032 56.4789C9.31873 56.9997 9.2071 57.7268 8.75087 58.7578C8.46452 59.4089 7.71708 60.8467 7.67339 60.8305C7.5375 60.7816 6.47458 58.5136 6.28529 57.8733C6.03291 56.9943 6.10571 56.5331 6.59592 55.9851C6.79006 55.7735 6.96964 55.627 7.11039 55.5673C7.43557 55.4425 7.92578 55.4533 8.26067 55.589Z" fill="#31DC89"/>
</svg>
