<svg width="35" height="35" viewBox="0 0 35 35" fill="none" xmlns="http://www.w3.org/2000/svg">
<path d="M22.2223 17.3747C22.0671 14.3522 19.8228 12.5342 17.1125 12.5342H17.0105C13.8829 12.5342 12.1487 14.9936 12.1487 17.7875C12.1487 20.9151 14.2468 22.891 16.9987 22.891C20.0658 22.891 22.0832 20.6437 22.2291 17.986L22.2223 17.3747H22.2223ZM17.0257 9.82871C19.1154 9.82871 21.0805 10.7525 22.5228 12.199V12.2044C22.5228 11.5102 22.9902 10.9867 23.6388 10.9867L23.803 10.9856C24.8173 10.9856 25.0262 11.9458 25.0262 12.2496L25.0308 23.0447C24.9591 23.7518 25.7604 24.1168 26.2044 23.6629C27.9381 21.8815 30.0115 14.5047 25.1267 10.2316C20.5743 6.24682 14.4657 6.90318 11.217 9.14255C7.76316 11.5244 5.55366 16.7968 7.70014 21.7483C10.0403 27.1488 16.7362 28.7596 20.716 27.1527C22.7312 26.3394 23.6616 29.0633 21.5688 29.9535C18.4067 31.3002 9.60445 31.1643 5.49289 24.0415C2.71479 19.2324 2.862 10.7706 10.2305 6.38684C15.8668 3.03214 23.2983 3.96064 27.7794 8.64038C32.4633 13.5326 32.1896 22.6942 27.6216 26.2554C25.5515 27.8738 22.4767 26.2993 22.4961 23.9414L22.4751 23.1706C21.0337 24.6007 19.1153 25.4352 17.0256 25.4352C12.8968 25.4352 9.26375 21.8033 9.26375 17.6737C9.26375 13.5045 12.8968 9.82869 17.0256 9.82869" fill="#31DC89"/>
</svg>
