<svg width="15" height="15" viewBox="0 0 15 15" fill="none" xmlns="http://www.w3.org/2000/svg">
<path d="M14.7602 6.91728L9.3432 1.50013C9.18857 1.3455 8.98247 1.26062 8.76272 1.26062C8.54272 1.26062 8.33675 1.34562 8.18212 1.50013L7.69029 1.99208C7.53578 2.14647 7.45066 2.35268 7.45066 2.57256C7.45066 2.79231 7.53578 3.00548 7.69029 3.15987L10.8505 6.32704H0.810358C0.357679 6.32704 0 6.68143 0 7.13423V7.82971C0 8.28251 0.357679 8.67263 0.810358 8.67263H10.8864L7.69041 11.8575C7.5359 12.0121 7.45078 12.2127 7.45078 12.4326C7.45078 12.6522 7.5359 12.8558 7.69041 13.0103L8.18224 13.5006C8.33687 13.6553 8.54284 13.7395 8.76284 13.7395C8.9826 13.7395 9.18869 13.6542 9.34332 13.4995L14.7603 8.08252C14.9153 7.92739 15.0006 7.72032 15 7.5002C15.0005 7.27935 14.9153 7.07216 14.7602 6.91728Z" fill="white"/>
</svg>
