<?xml version="1.0" standalone="no"?>
<!DOCTYPE svg PUBLIC "-//W3C//DTD SVG 20010904//EN"
 "http://www.w3.org/TR/2001/REC-SVG-20010904/DTD/svg10.dtd">
<svg version="1.0" xmlns="http://www.w3.org/2000/svg"
 width="512.000000pt" height="512.000000pt" viewBox="0 0 512.000000 512.000000"
 preserveAspectRatio="xMidYMid meet">
<metadata>
Created by potrace 1.16, written by Peter Selinger 2001-2019
</metadata>
<g transform="translate(0.000000,512.000000) scale(0.100000,-0.100000)"
fill="#000000" stroke="none">
<path d="M2360 5080 c-427 -69 -750 -336 -886 -731 -50 -148 -66 -242 -71
-444 -4 -145 -1 -216 11 -300 57 -391 236 -788 481 -1068 63 -72 75 -92 89
-148 19 -76 20 -133 5 -195 -11 -41 -10 -46 14 -78 64 -83 242 -186 379 -220
87 -21 264 -21 355 -1 110 26 257 103 335 176 l67 64 -10 45 c-12 50 -5 136
17 224 12 48 28 73 85 139 234 270 406 645 475 1032 24 135 24 411 0 550 -85
491 -389 824 -855 937 -97 23 -391 34 -491 18z"/>
<path d="M1610 1912 c-696 -295 -1116 -615 -1201 -917 -9 -34 -14 -98 -13
-195 1 -159 16 -221 75 -305 215 -312 932 -475 2094 -475 1238 0 1952 181
2120 537 62 129 58 389 -8 527 -112 233 -380 449 -832 671 -181 89 -441 196
-483 198 -25 2 -26 -3 -57 -133 -71 -296 -163 -619 -252 -875 -60 -173 -154
-398 -163 -388 -4 4 -15 42 -25 83 -24 102 -116 369 -176 512 -27 65 -49 122
-49 126 0 5 19 19 42 32 99 56 167 145 168 219 0 51 -35 115 -90 164 -55 49
-165 107 -204 107 -42 0 -150 -54 -202 -101 -137 -127 -100 -289 89 -389 l44
-24 -45 -105 c-60 -143 -158 -424 -184 -530 -11 -47 -24 -90 -28 -94 -8 -10
-100 207 -164 388 -69 196 -159 501 -228 778 -48 193 -65 247 -77 246 -9 0
-77 -26 -151 -57z"/>
</g>
</svg>
