<svg width="12" height="11" viewBox="0 0 12 11" fill="none" xmlns="http://www.w3.org/2000/svg">
<path d="M11.7487 4.47247C11.1114 2.00319 9.5391 0.210693 8.01076 0.210693C7.888 0.210693 7.76537 0.222269 7.64589 0.245157C7.57813 0.258048 7.51888 0.301193 7.48221 0.363806C7.44566 0.426814 7.43534 0.50337 7.45392 0.574928L7.76852 1.79404C7.79888 1.91177 7.90367 1.99135 8.01258 1.98596L8.03759 1.98544C8.60439 1.98544 9.64024 2.90569 10.1683 4.95101C10.1892 5.03217 10.209 5.11517 10.228 5.20173C9.63526 4.88393 8.9281 4.8104 8.28772 5.00363C6.84305 5.44153 5.99674 7.07078 6.40058 8.63559C6.72794 9.90351 7.80459 10.7893 9.0188 10.7893C9.26614 10.7893 9.51311 10.7523 9.75292 10.6796C10.7056 10.3911 11.4219 9.53427 11.7699 8.26741C12.084 7.12445 12.0761 5.74131 11.7487 4.47247Z" fill="black"/>
<path d="M1.71056 0.210693C1.58804 0.210693 1.46528 0.222006 1.34593 0.244894C1.27829 0.257522 1.21892 0.30093 1.18237 0.363543C1.14582 0.426551 1.1355 0.503107 1.15396 0.574665L1.46868 1.79378C1.49904 1.91151 1.60188 1.99109 1.71274 1.9857L1.73751 1.98517C2.30431 1.98517 3.34028 2.90543 3.86834 4.95075C3.88935 5.03244 3.90914 5.11544 3.92808 5.20147C3.33506 4.88366 2.62814 4.81013 1.98776 5.00337C0.543328 5.44126 -0.303226 7.07052 0.100866 8.63533C0.42822 9.90324 1.50487 10.789 2.71909 10.789C2.96642 10.789 3.21339 10.7521 3.45332 10.6793C4.40588 10.3909 5.12215 9.53401 5.47026 8.26715C5.78426 7.12419 5.77649 5.74091 5.44901 4.47194C4.81131 2.00293 3.23926 0.210693 1.71056 0.210693Z" fill="black"/>
</svg>
