<svg width="60" height="64" viewBox="0 0 60 64" fill="none" xmlns="http://www.w3.org/2000/svg">
<path d="M59.9297 4.74898C59.7997 2.22203 57.9042 0.212573 55.5209 0.0746576C50.7117 -0.203906 41.3011 0.0670787 32.3025 5.00182C27.7152 7.51759 22.8637 11.7829 18.9919 16.7041C18.9442 16.7647 18.8978 16.8257 18.8505 16.8865L10.0637 17.6061C8.61741 17.7247 7.32917 18.5284 6.52925 19.8112L0.534638 29.4244C-0.072041 30.3973 -0.168486 31.6148 0.276474 32.6812C0.721552 33.7478 1.63608 34.491 2.723 34.6696L10.1258 35.8852C10.0997 36.0378 10.0735 36.1902 10.0494 36.3428C9.80299 37.9058 10.2914 39.5129 11.3562 40.6417L21.6678 51.5746C22.5505 52.5105 23.7434 53.0265 24.9656 53.0265C25.2174 53.0265 25.4705 53.0045 25.7224 52.9599C25.8663 52.9345 26.0101 52.9066 26.154 52.8789L27.3006 60.7279C27.469 61.8803 28.17 62.8501 29.1757 63.3218C29.5942 63.5181 30.037 63.6151 30.4779 63.6151C31.097 63.6149 31.7118 63.4238 32.2476 63.0482L41.3146 56.6923C42.5245 55.8441 43.2825 54.4782 43.3941 52.9449L44.0728 43.6289C44.1301 43.5787 44.1878 43.5295 44.245 43.479C48.8867 39.374 52.9097 34.2301 55.2824 29.3663C59.937 19.8252 60.1921 9.84748 59.9297 4.74898ZM39.3757 53.5829L30.7026 59.6627L29.5851 52.0134C33.2507 50.8707 36.8768 49.0405 40.3314 46.5888L39.8892 52.6576C39.8617 53.0362 39.6744 53.3736 39.3757 53.5829ZM24.1537 48.9389L13.842 38.006C13.5789 37.7269 13.4573 37.3349 13.5169 36.9573C13.8235 35.0137 14.2998 33.1636 14.8895 31.4206L30.3615 47.8248C28.3872 48.5746 26.6187 49.0219 25.1427 49.2836C24.786 49.3464 24.4167 49.2178 24.1537 48.9389ZM10.3346 21.3225L16.0585 20.8537C13.7459 24.5164 12.0197 28.361 10.9419 32.2475L3.72741 31.0628L9.46186 21.867C9.65944 21.5501 9.9776 21.3517 10.3346 21.3225ZM41.9933 40.6164C39.1535 43.1278 36.3969 44.9443 33.8561 46.2588L16.3692 27.7184C17.9932 24.2017 19.9752 21.2733 21.6915 19.0918C25.2745 14.5375 29.7308 10.6086 33.9178 8.31253C42.1765 3.78333 50.8778 3.53943 55.3295 3.79637C55.9187 3.83042 56.3874 4.32728 56.4195 4.95212C56.6622 9.67205 56.4316 18.8974 52.1598 27.6538C49.9943 32.0929 46.2887 36.8176 41.9933 40.6164Z" fill="#31DC89"/>
<path d="M41.1008 29.3527C43.3511 29.3524 45.6022 28.4442 47.3154 26.6278C48.9755 24.8678 49.8895 22.5277 49.8895 20.0388C49.8895 17.5499 48.9754 15.2098 47.3154 13.4498C43.8886 9.81641 38.3128 9.81666 34.8863 13.4498C33.2262 15.2098 32.312 17.5499 32.312 20.0388C32.312 22.5277 33.2263 24.8678 34.8863 26.6278C36.5998 28.4445 38.8498 29.3529 41.1008 29.3527ZM37.3719 16.0853C38.3999 14.9953 39.7502 14.4504 41.1006 14.4504C42.4511 14.4504 43.8014 14.9953 44.8294 16.0853C45.8254 17.1413 46.3738 18.5453 46.3738 20.0387C46.3738 21.532 45.8254 22.9361 44.8294 23.9921C42.7734 26.172 39.4279 26.1719 37.3718 23.9921C36.3758 22.9361 35.8273 21.5321 35.8273 20.0388C35.8273 18.5455 36.376 17.1413 37.3719 16.0853Z" fill="#31DC89"/>
<path d="M1.7934 52.4248C2.24328 52.4248 2.69316 52.2429 3.03628 51.8789L8.7753 45.7941C9.46178 45.0662 9.46178 43.8862 8.7753 43.1584C8.08893 42.4305 6.97589 42.4305 6.2894 43.1584L0.550507 49.2432C-0.135976 49.971 -0.135976 51.151 0.550507 51.8789C0.893631 52.2428 1.34351 52.4248 1.7934 52.4248Z" fill="#31DC89"/>
<path d="M14.0354 48.7348C13.349 48.007 12.236 48.007 11.5495 48.7348L0.515839 60.4333C-0.170644 61.1611 -0.170644 62.3411 0.515839 63.0689C0.85908 63.4328 1.30885 63.6147 1.75873 63.6147C2.20861 63.6147 2.65849 63.4328 3.00162 63.0688L14.0353 51.3705C14.7219 50.6426 14.7219 49.4627 14.0354 48.7348Z" fill="#31DC89"/>
<path d="M16.8086 54.311L11.0695 60.3958C10.3831 61.1237 10.3831 62.3037 11.0695 63.0315C11.4128 63.3954 11.8627 63.5775 12.3124 63.5775C12.7622 63.5775 13.2122 63.3956 13.5553 63.0315L19.2943 56.9467C19.9808 56.2188 19.9808 55.0388 19.2943 54.311C18.608 53.5831 17.4949 53.5831 16.8086 54.311Z" fill="#31DC89"/>
</svg>
