<svg width="69" height="69" viewBox="0 0 69 69" fill="none" xmlns="http://www.w3.org/2000/svg">
<path d="M60.8762 31.9745C58.5283 30.8007 54.1262 30.787 53.9399 30.787C53.3817 30.787 52.9292 31.2396 52.9292 31.7978C52.9292 32.356 53.3817 32.8085 53.9399 32.8085C55.0759 32.8087 58.374 32.9836 59.9722 33.7826C60.1173 33.8553 60.2715 33.8895 60.4234 33.8895C60.7941 33.8895 61.1511 33.6846 61.3282 33.3306C61.5779 32.8313 61.3755 32.2242 60.8762 31.9745Z" fill="#31DC89"/>
<path d="M65.9155 46.3649L61.7411 45.1722C61.5609 45.1208 61.4351 44.9539 61.4351 44.7665V43.3731C61.7747 43.1378 62.0987 42.8745 62.4015 42.5806C63.8691 41.1564 64.6773 39.2461 64.6773 37.2014V35.2787L65.0809 34.4716C65.5239 33.5855 65.7579 32.5935 65.7579 31.603V26.3943C65.7579 25.8361 65.3054 25.3835 64.7472 25.3835H55.0208C51.484 25.3835 48.6065 28.261 48.6065 31.7978V31.8581C48.6065 32.6818 48.8012 33.5067 49.1695 34.2433L49.6871 35.2786V36.9294C49.6871 39.5458 50.9764 41.8933 52.9293 43.3059L52.9296 44.7662C52.9296 44.9914 52.9296 45.0846 52.095 45.3232L50.0582 45.9051L44.1661 43.7626C44.1872 43.4846 44.0934 43.2018 43.8906 42.9888L42.0078 41.0107V37.6901C42.2068 37.526 42.4031 37.3576 42.5932 37.1794C44.9685 34.9531 46.3307 31.8098 46.3307 28.5556V25.9037C47.0479 24.343 47.4114 22.6914 47.4114 20.9906V10.1837C47.4114 9.62552 46.9588 9.17297 46.4006 9.17297H31.2706C25.946 9.17297 21.6143 13.5049 21.6143 18.8293V20.9908C21.6143 22.6917 21.9777 24.3433 22.6949 25.904V28.1857C22.6949 31.964 24.3749 35.3679 27.0178 37.612V41.0108L25.135 42.9889C24.9322 43.202 24.8384 43.4847 24.8595 43.7627L18.6408 46.024C18.1901 46.1878 17.7714 46.4098 17.3912 46.6786L16.4147 46.1904C19.3216 44.9251 20.2425 43.1455 20.2867 43.0571C20.429 42.7726 20.429 42.4376 20.2867 42.1531C19.558 40.6957 19.4697 38.0245 19.3988 35.8783C19.3753 35.1637 19.3529 34.4887 19.3102 33.8876C18.9656 29.0396 15.28 25.3835 10.737 25.3835C6.1941 25.3835 2.50839 29.0394 2.16393 33.8876C2.12121 34.4888 2.09884 35.1639 2.07526 35.8785C2.00437 38.0247 1.91596 40.6956 1.18742 42.153C1.04511 42.4374 1.04511 42.7725 1.18742 43.057C1.23162 43.1454 2.15059 44.9213 5.06328 46.1881L2.35085 47.5443C0.900773 48.2698 0 49.7273 0 51.3484V58.8156C0 59.3738 0.452543 59.8264 1.01074 59.8264C1.56894 59.8264 2.02148 59.3738 2.02148 58.8156V51.3484C2.02148 50.4978 2.49411 49.733 3.25486 49.3525L6.63249 47.6638L7.80738 48.7803C8.62891 49.561 9.68277 49.9512 10.737 49.9512C11.791 49.9512 12.8455 49.5607 13.6667 48.7803L14.8415 47.6639L15.9428 48.2146C15.4242 49.0443 15.1299 50.0173 15.1299 51.0366V58.8159C15.1299 59.3741 15.5824 59.8267 16.1406 59.8267C16.6988 59.8267 17.1514 59.3741 17.1514 58.8159V51.0366C17.1514 49.649 18.0275 48.3981 19.3316 47.9239L25.8882 45.5397L28.6176 49.6341C28.9665 50.1575 29.5257 50.4932 30.1517 50.5552C30.2215 50.5621 30.2909 50.5654 30.3601 50.5654C30.9124 50.5654 31.4414 50.348 31.8368 49.9528L33.5019 48.2876V58.816C33.5019 59.3742 33.9545 59.8268 34.5127 59.8268C35.0709 59.8268 35.5234 59.3742 35.5234 58.816V48.2876L37.1886 49.9528C37.5838 50.3482 38.1128 50.5656 38.6652 50.5656C38.7343 50.5656 38.8039 50.5622 38.8736 50.5553C39.4997 50.4933 40.0588 50.1576 40.4077 49.6342L43.1373 45.54L49.6937 47.9242C50.9977 48.3984 51.874 49.6493 51.874 51.0368V58.8162C51.874 59.3744 52.3265 59.8269 52.8847 59.8269C53.4429 59.8269 53.8955 59.3744 53.8955 58.8162V51.0368C53.8955 49.6315 53.3371 48.3135 52.4005 47.3387L52.6502 47.2674C52.9021 47.1955 53.2458 47.097 53.5908 46.9278L56.1714 49.5085V58.8162C56.1714 59.3744 56.6239 59.8269 57.1821 59.8269C57.7403 59.8269 58.1929 59.3744 58.1929 58.8162V49.5085L60.7556 46.9458C60.8918 47.015 61.035 47.0735 61.1856 47.1165L65.3601 48.3092C66.3129 48.5814 66.9785 49.4637 66.9785 50.4548V58.8162C66.9785 59.3744 67.4311 59.8269 67.9893 59.8269C68.5475 59.8269 69 59.3744 69 58.8162V50.4548C69 48.5656 67.7316 46.8839 65.9155 46.3649ZM6.48425 44.5797C4.59362 43.8994 3.64528 42.9924 3.24044 42.4971C3.51644 41.7756 3.69541 40.9492 3.81656 40.0769C4.37395 41.4134 5.30747 42.5543 6.48425 43.3683V44.5797ZM12.2745 47.3152C11.4124 48.1343 10.0619 48.1341 9.20004 47.315L8.26005 46.4218C8.41867 46.1246 8.50587 45.7877 8.50587 45.4348V44.3574C9.21096 44.5778 9.96053 44.6967 10.7373 44.6967C11.5132 44.6967 12.2623 44.5772 12.9686 44.3581L12.9685 45.4346C12.9685 45.7877 13.0556 46.1248 13.2143 46.4221L12.2745 47.3152ZM10.7376 42.6752C7.71938 42.6752 5.26408 40.2197 5.26408 37.2017C5.26408 36.6435 4.81154 36.1909 4.25334 36.1909C4.19674 36.1909 4.14148 36.1967 4.08744 36.2057C4.09041 36.1188 4.09324 36.0318 4.0962 35.9456C4.11871 35.2507 4.1404 34.5942 4.18043 34.0312C4.30954 32.2151 5.03525 30.5415 6.22388 29.3187C7.42316 28.0848 9.02606 27.4053 10.7373 27.4053C12.4486 27.4053 14.0513 28.0848 15.2508 29.3187C16.4394 30.5415 17.1651 32.2151 17.2942 34.0312C17.3341 34.5941 17.3559 35.2504 17.3788 35.9452C17.3809 36.0049 17.3829 36.0655 17.3849 36.1256C16.2852 34.4313 14.5869 33.1827 12.3925 32.4776C10.3652 31.8263 8.62163 31.8666 8.54805 31.8685C8.28337 31.8759 8.03217 31.9866 7.84848 32.1772L6.02483 34.0685C5.63738 34.4704 5.64897 35.1102 6.05084 35.4977C6.45271 35.8851 7.09258 35.8734 7.48003 35.4717L8.99749 33.898C10.3043 33.9619 14.5086 34.4508 16.1437 38.0514C15.7323 40.7046 13.4518 42.6752 10.7376 42.6752ZM14.9898 44.583L14.99 43.3776C16.1658 42.568 17.1007 41.4293 17.6585 40.0827C17.7796 40.953 17.9585 41.7775 18.2339 42.4974C17.8314 42.988 16.8786 43.903 14.9898 44.583ZM24.7164 28.1856V25.6779C24.7164 25.5257 24.6821 25.3754 24.6159 25.2384C23.9655 23.8915 23.6357 22.4625 23.6357 20.9908V18.8295C23.6357 14.6195 27.0608 11.1946 31.2706 11.1946H45.3899V20.991C45.3899 22.4626 45.0601 23.8917 44.4097 25.2385C44.3435 25.3756 44.3092 25.5258 44.3092 25.678V28.5559C44.3092 31.2931 43.2088 33.832 41.2108 35.7048C40.9613 35.9385 40.7025 36.1576 40.4348 36.3618C40.4289 36.3658 40.4232 36.3703 40.4174 36.3745C38.5457 37.7956 36.253 38.4862 33.8588 38.3311C28.7322 37.9992 24.7164 33.5428 24.7164 28.1856ZM30.4074 48.5232C30.4004 48.5302 30.3841 48.5468 30.3511 48.5433C30.3182 48.54 30.3053 48.5208 30.2998 48.5124L27.1564 43.7972L28.1679 42.7343L32.9366 45.9939L30.4074 48.5232ZM34.5128 44.6227L29.0393 40.8813V38.9946C30.4555 39.7602 32.0413 40.239 33.7279 40.3482C33.9944 40.3654 34.2592 40.3739 34.5232 40.3739C36.4559 40.3739 38.3159 39.9119 39.9863 39.035V40.8813L34.5128 44.6227ZM38.7258 48.5127C38.7203 48.521 38.7074 48.5403 38.6745 48.5435C38.6415 48.5477 38.6253 48.5303 38.6182 48.5235L36.089 45.9943L40.8577 42.7346L41.8694 43.7975L38.7258 48.5127ZM57.1821 47.6599L54.8884 45.3663C54.9284 45.1845 54.9511 44.9855 54.951 44.7659L54.9508 44.3394C55.5873 44.5483 56.2582 44.6723 56.9524 44.693C57.0303 44.6954 57.1075 44.6965 57.1851 44.6965C57.9522 44.6965 58.7009 44.5806 59.4136 44.3595V44.7665C59.4136 44.9681 59.4389 45.1656 59.4866 45.3555L57.1821 47.6599ZM60.9937 41.1299C59.9225 42.1695 58.5073 42.7186 57.0131 42.6725C54.0882 42.5847 51.7086 40.0084 51.7086 36.9297V35.0402C51.7086 34.8832 51.6721 34.7284 51.6019 34.5882L50.9775 33.3394C50.7488 32.8819 50.6279 32.3698 50.6279 31.8582V31.798C50.6279 29.3757 52.5986 27.4051 55.0208 27.4051H63.7365V31.6031C63.7365 32.2815 63.5761 32.9609 63.2727 33.5677L62.7625 34.5882C62.6923 34.7286 62.6558 34.8832 62.6558 35.0402V37.2015C62.6558 38.6947 62.0655 40.0898 60.9937 41.1299Z" fill="#31DC89"/>
<path d="M63.6665 51.3206C63.1083 51.3206 62.6558 51.7732 62.6558 52.3314V58.8156C62.6558 59.3738 63.1083 59.8263 63.6665 59.8263C64.2247 59.8263 64.6772 59.3738 64.6772 58.8156V52.3314C64.6772 51.7733 64.2247 51.3206 63.6665 51.3206Z" fill="#31DC89"/>
<path d="M5.3335 52.6567C4.7753 52.6567 4.32275 53.1092 4.32275 53.6674V58.8156C4.32275 59.3738 4.7753 59.8263 5.3335 59.8263C5.8917 59.8263 6.34424 59.3738 6.34424 58.8156V53.6674C6.34424 53.1094 5.8917 52.6567 5.3335 52.6567Z" fill="#31DC89"/>
<path d="M42.7924 21.357C38.9697 17.5342 30.9715 18.265 27.7099 18.7567C26.6825 18.9115 25.937 19.7809 25.937 20.8238V23.1523C25.937 23.7105 26.3896 24.163 26.9478 24.163C27.506 24.163 27.9585 23.7105 27.9585 23.1523V20.8237C27.9585 20.7893 27.9811 20.7599 28.0113 20.7554C29.3141 20.559 31.8993 20.2561 34.5778 20.4346C37.7297 20.6445 40.0126 21.4357 41.3631 22.7863C41.7578 23.181 42.3978 23.181 42.7924 22.7863C43.1872 22.3916 43.1872 21.7516 42.7924 21.357Z" fill="#31DC89"/>
<path d="M22.625 53.4821C22.0668 53.4821 21.6143 53.9347 21.6143 54.4929V58.8157C21.6143 59.3739 22.0668 59.8265 22.625 59.8265C23.1832 59.8265 23.6357 59.3739 23.6357 58.8157V54.4929C23.6357 53.9348 23.1832 53.4821 22.625 53.4821Z" fill="#31DC89"/>
<path d="M46.4004 53.4821C45.8422 53.4821 45.3896 53.9347 45.3896 54.4929V58.8157C45.3896 59.3739 45.8422 59.8265 46.4004 59.8265C46.9586 59.8265 47.4111 59.3739 47.4111 58.8157V54.4929C47.4111 53.9348 46.9586 53.4821 46.4004 53.4821Z" fill="#31DC89"/>
</svg>
